<?xml version="1.0" encoding="utf-8"?>
<!-- Generator: Adobe Illustrator 27.5.0, SVG Export Plug-In . SVG Version: 6.00 Build 0)  -->
<svg version="1.1" xmlns="http://www.w3.org/2000/svg" xmlns:xlink="http://www.w3.org/1999/xlink" x="0px" y="0px"
	 viewBox="0 0 500 500" style="enable-background:new 0 0 500 500;" xml:space="preserve">

<g id="OBJECTS">
	<g>
		<g>
			<g>
				<path style="fill:#9C6110;" d="M135.223,160.827c0,0-12.526,62.992-9.747,62.358c2.779-0.633,15.166-57.567,15.166-57.567"/>
				<path style="fill:#9C6110;" d="M185.281,160.827c0,0,12.526,62.992,9.747,62.358c-2.779-0.633-15.166-57.567-15.166-57.567"/>
				<g>
					<path style="fill:#E0E0E0;" d="M129.9,100.934c0,0-1.901,46.877-1.584,50.362c0.317,3.484,1.584,19.955,31.04,18.688
						c29.457-1.267,31.991-6.652,33.891-10.769c1.9-4.118,1.9-25.339,1.9-25.339l-3.801-32.941c0,0,1.9-21.222-15.204-25.022
						C159.04,72.111,133.384,71.477,129.9,100.934z"/>
					<path style="fill:#D1D1D1;" d="M132.28,103.048c0,0-1.72,42.437-1.434,45.591c0.287,3.154,1.434,18.064,28.1,16.917
						s28.96-6.021,30.68-9.749c1.72-3.728,1.72-22.939,1.72-22.939l-3.441-29.82c0,0,1.72-19.211-13.763-22.652
						C158.66,76.955,135.434,76.381,132.28,103.048z"/>
				</g>
				<g>
					<g>
						<g>
							<path style="fill:#B7AA6C;" d="M155.642,223.494c0,0-4.118,10.03-2.745,10.558c1.373,0.528,10.136,0.95,9.186-1.161
								c-0.95-2.112-2.639-8.763-2.639-8.763"/>
							<path style="fill:#78BCD1;" d="M149.729,142.831c-0.845,0.211-11.403,0.211-10.347,9.924
								c1.056,9.713,15.626,71.372,15.626,71.372h5.279c0,0-2.956-72.217-3.379-75.173
								C156.487,145.998,149.729,142.831,149.729,142.831z"/>
						</g>
						<g>
							<path style="fill:#B7AA6C;" d="M168.796,223.771c0,0,4.89,9.677,3.563,10.311c-1.327,0.634-10.03,1.741-9.248-0.439
								s1.945-8.943,1.945-8.943"/>
							<path style="fill:#78BCD1;" d="M168.375,142.893c0.859,0.144,11.384-0.682,11.092,9.084s-9.99,72.376-9.99,72.376
								l-5.263,0.413c0,0-2.707-72.227-2.517-75.207C161.886,146.579,168.375,142.893,168.375,142.893z"/>
						</g>
						<path style="fill:#78BCD1;" d="M144.195,136.187c0,0-5.068,11.825-2.956,14.148c2.112,2.323,34.76,3.56,35.053-2.534
							c0.292-6.094,0-10.558,0-10.558"/>
					</g>
					<g>
						<path style="fill:#6A7ABA;" d="M193.746,101.96c0,0-2.851-12.67-5.385-19.056c-2.534-6.387-5.068-4.516-5.068-4.516
							l-0.006,0.035c-8.208-0.366-24.023,2.39-24.023,2.39l-6.73-0.821c0,0-20.614-3.874-23.644,0.946
							c-1.628,1.493-4.053,4.828-4.053,12.53c0,10.619,0,14.158,0,14.158h9.704c4.034,15.726,8.595,32.817,8.595,32.817h33.423
							c0,0,4.693-18.208,7.711-34.878C188.716,104.259,193.746,101.96,193.746,101.96z"/>
						<g>
							<g>
								<g>
									<path style="fill:#E2AC6A;" d="M151.301,71.568c0.211,0.317,1.056,12.247,1.056,12.247s3.801,4.329,12.775,0.422
										l0.845-12.67"/>
								</g>
								<g>
									<path style="fill:#D39959;" d="M152.112,80.807l-0.468-6.272c0,0,5.352,4.355,7.924,3.801
										c2.572-0.554,4.904-1.742,4.904-1.742S161.191,87.316,152.112,80.807z"/>
								</g>
								<g>
									<path style="fill:#E2AC6A;" d="M150.034,54.147c0,0-0.182,15.825,0.451,18.253c0.633,2.428,5.145,8.142,6.728,8.353
										c1.584,0.211,2.112,0,2.112,0s6.229-0.95,8.446-10.241V54.886c0,0-1.478-6.546-8.13-6.652
										C159.642,48.235,151.618,48.023,150.034,54.147z"/>
								</g>
								<g>
									<path style="fill:#E2AC6A;" d="M150.283,62.672c0,0-1.471-0.952-1.419,0.579c0.053,1.531,1.848,3.801,1.848,3.801"/>
								</g>
								<g>
									<path style="fill:#E2AC6A;" d="M167.487,62.672c0,0,1.471-0.952,1.419,0.579c-0.053,1.531-1.848,3.801-1.848,3.801"/>
								</g>
							</g>
							<g>
								<g style="opacity:0.67;">
									<g>
										<polyline style="fill:#BC6F3B;" points="156.897,67.844 159.008,68.794 160.381,67.21 										"/>
									</g>
								</g>
								<g>
									<g>
										<g>
											<path style="fill:#B56D3B;" d="M156.292,70.879c2.006,1.474,4.165-0.181,5.64-1.583c0.23-0.219-0.118-0.567-0.348-0.348
												c-1.318,1.252-3.214,2.849-5.043,1.506C156.285,70.265,156.039,70.693,156.292,70.879L156.292,70.879z"/>
										</g>
									</g>
								</g>
								<g>
									<g>
										<g>
											<path style="fill:#B56D3B;" d="M159.671,72.562c0.243-0.146,0.487-0.291,0.73-0.437c0.272-0.163,0.024-0.589-0.249-0.425
												c-0.243,0.146-0.487,0.291-0.73,0.437C159.151,72.299,159.398,72.725,159.671,72.562L159.671,72.562z"/>
										</g>
									</g>
								</g>
								<g style="opacity:0.6;">
									<g>
										<ellipse style="fill:#E27959;" cx="164.472" cy="67.052" rx="1.98" ry="1.74"/>
									</g>
								</g>
								<g style="opacity:0.6;">
									<g>
										<ellipse style="fill:#E27959;" cx="153.281" cy="67.21" rx="1.98" ry="1.74"/>
									</g>
								</g>
								<g>
									<g>
										<g>
											<path d="M154.759,64.492c0.951,0,0.953-1.478,0-1.478C153.807,63.014,153.806,64.492,154.759,64.492L154.759,64.492z"/>
										</g>
									</g>
								</g>
								<g>
									<g>
										<g>
											<path d="M162.695,63.937c0.951,0,0.953-1.478,0-1.478C161.744,62.459,161.742,63.937,162.695,63.937L162.695,63.937z"/>
										</g>
									</g>
								</g>
								<g>
									<g>
										<path d="M152.559,62.77l-0.426-0.889c0.249-0.12,2.48-1.153,3.973-0.603l-0.34,0.925
											C154.83,61.858,153.133,62.495,152.559,62.77z"/>
									</g>
								</g>
								<g>
									<g>
										<path d="M161.695,61.479l-0.499-0.85c1.373-0.805,3.751-0.184,4.017-0.112l-0.261,0.95
											C164.338,61.3,162.555,60.974,161.695,61.479z"/>
									</g>
								</g>
							</g>
							<g>
								<path style="fill:#B1DFEF;" d="M150.623,60.502c-0.354,0.183-0.578,0.548-0.59,0.946c-0.039,1.284-0.08,4.191,0.336,4.694
									c0.521,0.63,4.623,3.05,6.992,0.046c0.145-0.184,0.213-0.418,0.213-0.653v-3.98c0-0.45-0.271-0.858-0.69-1.023
									C155.655,60.048,152.991,59.279,150.623,60.502z"/>
								<path d="M154.323,67.907c-1.948,0-3.774-1.16-4.144-1.607c-0.346-0.418-0.478-2.053-0.393-4.858
									c0.015-0.491,0.292-0.935,0.724-1.157c2.416-1.248,5.087-0.524,6.464,0.019c0.514,0.202,0.846,0.694,0.846,1.253v3.98
									c0,0.302-0.094,0.588-0.266,0.805c-0.807,1.024-1.875,1.55-3.174,1.566C154.362,67.907,154.343,67.907,154.323,67.907z
									 M153.482,60.087c-0.895,0-1.842,0.167-2.746,0.634l0,0c-0.272,0.14-0.447,0.422-0.457,0.735
									c-0.091,2.983,0.094,4.304,0.279,4.529c0.281,0.34,2.033,1.465,3.816,1.429c1.142-0.014,2.082-0.477,2.792-1.378
									c0.103-0.131,0.16-0.309,0.16-0.5v-3.98c0-0.355-0.21-0.666-0.534-0.794C156.018,60.456,154.808,60.087,153.482,60.087z
									 M150.623,60.503h0.005H150.623z"/>
							</g>
							<g>
								<path style="fill:#B1DFEF;" d="M166.863,60.284c0.354,0.183,0.578,0.548,0.59,0.946c0.039,1.284,0.08,4.191-0.336,4.694
									c-0.521,0.63-4.623,3.049-6.992,0.046c-0.145-0.184-0.213-0.418-0.213-0.653v-3.98c0-0.45,0.271-0.858,0.69-1.023
									C161.832,59.829,164.495,59.06,166.863,60.284z"/>
								<path d="M163.163,67.688c-0.019,0-0.038,0-0.057,0c-1.299-0.015-2.366-0.542-3.174-1.566
									c-0.171-0.218-0.266-0.504-0.266-0.806v-3.98c0-0.558,0.332-1.05,0.846-1.253c1.377-0.543,4.048-1.268,6.464-0.02l0,0
									c0.431,0.223,0.708,0.667,0.723,1.158c0.086,2.805-0.046,4.44-0.393,4.858C166.937,66.528,165.111,67.688,163.163,67.688z
									 M164.005,59.868c-1.326,0-2.536,0.368-3.312,0.674c-0.325,0.128-0.534,0.44-0.534,0.794v3.98
									c0,0.191,0.057,0.369,0.16,0.501c0.71,0.901,1.65,1.364,2.792,1.378c1.802,0.019,3.535-1.089,3.816-1.429
									c0.186-0.225,0.371-1.546,0.279-4.529c-0.01-0.313-0.184-0.594-0.457-0.735C165.847,60.036,164.899,59.868,164.005,59.868z"
									/>
							</g>
							<g>
								<g>
									<path d="M157.686,63.012c0.257-0.186,0.529-0.322,0.843-0.386c0.154-0.031,0.308-0.044,0.464-0.04
										c0.066,0.002,0.454,0.107,0.453-0.017c0.002,0.317,0.495,0.318,0.493,0c-0.003-0.439-0.625-0.467-0.946-0.476
										c-0.561-0.014-1.103,0.166-1.556,0.493C157.183,62.771,157.429,63.199,157.686,63.012L157.686,63.012z"/>
								</g>
							</g>
						</g>
						<g>
							<path style="fill:#E2AC6A;" d="M180.1,106.157l6.335,17.421c0,0-26.923-1.584-28.19-1.9
								c-1.267-0.317-7.602,3.801-7.602,3.801l4.434,7.127l6.018-4.91c0,0,29.457,8.235,36.108,4.91
								c6.652-3.326-3.484-31.028-3.484-31.028"/>
							<path style="fill:#D19A5E;" d="M180.859,108.245c-0.032-0.089,11.462-6.126,11.462-6.126l-11.033,3.643l-1.425,0.475"/>
							<path style="fill:#7A8ECC;" d="M179.256,106.315c0.079-0.079-1.742-1.98-0.396-2.455c1.346-0.475,14.649-5.543,14.887-5.226
								c0.238,0.317,0.554,2.942,0.554,2.942"/>
						</g>
						<g>
							<polyline style="fill:#E2AC6A;" points="125.436,107.627 125.964,113.363 136.839,113.363 135.994,107.627 							"/>
							<path style="fill:#7A8ECC;" d="M125.436,105.182c0.053-0.133-1.293,0.342-1.293,0.342v2.721h11.942l0.411-2.404"/>
						</g>
					</g>
				</g>
			</g>
			<g>
				<g>
					<rect x="93.797" y="134.456" style="fill:#C1C1C1;" width="160.112" height="7.127"/>
					<rect x="93.797" y="141.583" style="fill:#9E9E9E;" width="160.112" height="3.563"/>
				</g>
				<rect x="102.349" y="145.146" style="fill:#9E9E9E;" width="6.651" height="100.961"/>
				<rect x="238.706" y="141.583" style="fill:#9E9E9E;" width="6.651" height="100.961"/>
			</g>
			<g>
				<path style="fill:#C4C4C4;" d="M118.894,105.739c0.018-0.543,35.978-2.275,35.978-2.275c-0.199,0.538,2.154,28.54,2.154,28.54
					l-5.016,0.055h27.698v2.397h-55.399v-2.094l-0.66,0.007C123.649,132.369,118.876,106.282,118.894,105.739z"/>
				<path style="fill:#ADADAD;" d="M153.972,132.059c-0.361-0.018-28.636,0-28.636,0v1.068l32.019-0.538"/>
				<path style="fill:#D6D6D6;" d="M132.737,116.8c0,1.927,1.562,3.489,3.489,3.489s3.489-1.562,3.489-3.489
					c0-1.927-1.562-3.489-3.489-3.489S132.737,114.873,132.737,116.8z"/>
			</g>
		</g>
		<g>
			<path style="fill:#FCF7D0;" d="M209.524,116.216c0,0.483,1.808,18.287,1.808,18.287h9.14l1.288-18.287"/>
			<rect x="208.719" y="115.08" style="fill:#E5E1C7;" width="13.846" height="2.039"/>
			<polyline style="fill:#FCF7D0;" points="210.007,115.08 211.617,113.363 220.633,113.363 221.475,115.08 			"/>
			<polyline style="fill:#EFE8BF;" points="209.661,117.771 221.475,117.771 221.696,117.119 209.661,117.119 			"/>
			<polyline style="fill:#D1AA52;" points="209.973,120.976 210.651,127.763 221.201,124.152 221.475,119.373 			"/>
		</g>
		<g>
			<path style="fill:#9B9B9B;" d="M229.922,236.554c0,0,7.705,1.718,3.719,2.631c-3.986,0.913-7.105,1.011-7.105,1.011"/>
			<path style="fill:#C1C1C1;" d="M229.922,236.08c0,0,7.705,1.718,3.719,2.631c-3.986,0.913-7.105,1.011-7.105,1.011"/>
			<g>
				<path style="fill:#D2DBD9;" d="M226.621,240.524h-19.697c-1.937,0-3.507-1.57-3.507-3.507v-38.344
					c0-1.937,1.57-3.507,3.507-3.507h19.697c1.937,0,3.507,1.57,3.507,3.507v38.344
					C230.128,238.954,228.557,240.524,226.621,240.524z"/>
				<path style="fill:#EDEDED;" d="M207.983,237.901L207.983,237.901c-0.963,0-1.744-0.781-1.744-1.744V197.89
					c0-0.963,0.781-1.744,1.744-1.744l0,0c0.963,0,1.744,0.781,1.744,1.744v38.268C209.727,237.121,208.946,237.901,207.983,237.901
					z"/>
				<rect x="202.586" y="194.35" style="fill:#9B9B9B;" width="28.232" height="5.393"/>
				<polyline style="opacity:0.53;fill:#BFC4C2;" points="230.055,199.743 203.79,201.114 204.288,199.743 				"/>
			</g>
		</g>
	</g>
	<g>
		<g>
			<g>
				<path style="fill:#CECECE;" d="M282.088,129.922c0.281,1.583,9.388,78.218,9.388,78.218s5.923,2.533,5.563,0
					s3.544-66.185,3.544-66.185l9.068,65.551c0,0,4.461,0,5.665-0.95c1.204-0.95,4.456-78.473,4.456-78.473"/>
				<path style="fill:#B7B6B6;" d="M304.106,167.428c-0.078-0.564,0-28.805,0-28.805l-3.176-2.188h-1.758"/>
			</g>
			<g>
				<g>
					<path style="fill:#F6BF96;" d="M274.93,128.659c0,0-2.001,7.259,1.773,7.617c3.774,0.359,3.401,0,3.401,0l-0.289-5.322
						l-0.823-3.636"/>
					<g>
						<path style="fill:#82D9E8;" d="M292.852,62.162c0,0-12.365,4.599-15.622,14.947c-3.258,10.348-2.3,51.549-2.3,51.549h3.833
							l1.341-7.857c0,0-1.533,15.906,1.916,19.163s18.014,3.066,27.02,0c9.007-3.066,10.731-6.132,10.731-6.132l-1.725-36.793
							c0,0,2.525-30.568-14.164-33.968"/>
						<path style="fill:#82D9E8;" d="M294.257,57.659c-0.068-0.192-3.811-0.192-3.041,0.767c0.77,0.958,1.057,2.683,0.866,2.97
							c-0.192,0.287-1.916,1.916-1.821,2.587c0.096,0.671,3.928,5.366,6.899,5.174c2.97-0.192,8.624-2.875,9.39-3.833
							c0.766-0.958-0.958-2.683-1.533-2.587s-2.563-0.862-2.287-1.533c0.275-0.671,1.666-4.12,0.443-4.216
							S294.257,57.659,294.257,57.659z"/>
						<path style="fill:#6FC5CE;" d="M280.104,120.802l2.3-36.219c0,0,1.932,17.822,1.637,20.888
							c-0.296,3.066-3.936,22.613-3.936,22.613"/>
						<path style="fill:#6FC5CE;" d="M292.063,60.406c0,0,2.031,1.852,4.33,2.139c2.3,0.287-4.707,0-4.707,0"/>
						<path style="fill:#6FC5CE;" d="M303.172,62.162c0,0-0.839,2.395-3.33,2.491c-2.491,0.096-0.289,0.575,1.916,0
							c2.204-0.575,3.258-1.916,3.258-1.916"/>
						<path style="fill:#6FC5CE;" d="M306.442,63.863c0,0-0.508,2.814-7.078,2.994c0,0,6.324,0.652,7.953-1.926"/>
					</g>
				</g>
				<g>
					<g>
						<path style="fill:#D3AE5B;" d="M320.871,125.525c0-0.958-4.599-34.302-4.599-34.302L289.443,94.9l1.341,10.024h1.725
							c0,0,2.491,25.008,2.874,24.433C295.767,128.783,320.871,125.525,320.871,125.525z"/>
						<path style="fill:#BC974D;" d="M308.448,111.278c-0.408,0.07,6.916-3.426,6.055-9.825c-0.861-6.399-1.095-7.465-1.095-7.465
							s3.029,10.576,2.301,12.566C314.981,108.543,311.496,110.755,308.448,111.278z"/>
					</g>
					<g>
						<path style="fill:#F6BF96;" d="M297.964,115.346c0,0-2.64-3.105-3.679-3.162c-1.039-0.057-3.162-0.287-3.162,0
							c0,0.287-1.635,1.437-1.68,4.216c-0.045,2.779,2.159,5.174,2.159,5.174h1.725l4.637-1.437"/>
						<path style="fill:#82D9E8;" d="M312.624,69.162c0,0,18.684,37.679,14.66,42.853c-4.024,5.174-29.32,8.624-29.32,8.624v-5.749
							c0,0,18.109-5.102,17.822-8.875c-0.287-3.773-7.186-33.087-7.186-33.087"/>
					</g>
				</g>
			</g>
			<g>
				<path style="fill:#504866;" d="M286.763,47.454l-0.791-4.456l-1.365,1.797c0,0-2.371-6.468,2.587-9.198l-3.154,0.719
					c0,0,1.142-1.94,3.944-1.581c0,0-1.365-1.15,4.168-4.168c5.533-3.018,0,0.719,0,0.719s2.372-2.93,8.192-1.896
					c5.821,1.034,9.294,5.202,10.037,8.22c0.743,3.018,1.246,6.324,1.246,6.324l-1.796-3.881l-1.128,4.871"/>
				<path style="fill:#F6BF96;" d="M310.382,45.969c0-1.725-2.034-0.943-2.034-0.943c0.117-1.986,0.118-3.465,0.118-3.465
					s-5.461-2.156-6.468-3.306c0,0-8.192,5.174-9.773,5.462s3.306-4.024,3.306-4.024l-7.905,1.868
					c-0.06,0.179-0.193,1.872-0.165,4.026c-0.268-0.094-1.996-0.635-1.996,0.956c0,1.447,1.854,3.647,2.453,4.321
					c0.267,1.444,0.675,2.749,1.289,3.632c2.3,3.306,8.336,5.318,8.767,5.318c0.431,0,6.755-2.3,8.623-5.605
					c0.506-0.896,0.874-2.235,1.143-3.711C307.741,50.498,310.382,47.694,310.382,45.969z"/>
				<path style="fill:#E0A57E;" d="M296.393,51.36c0,0,2.875,0.5,3.375,0s-1.688,1.125-1.688,1.125"/>
				<path style="opacity:0.63;fill:#E59880;" d="M304.852,50.541c-1.137,0.445-2.322,0.132-2.647-0.699
					c-0.326-0.831,0.332-1.866,1.468-2.312c1.136-0.445,2.322-0.132,2.648,0.699C306.645,49.061,305.988,50.095,304.852,50.541z"/>
				<path style="opacity:0.63;fill:#E59880;" d="M291.346,51.807c-1.193-0.256-2.009-1.172-1.821-2.045
					c0.188-0.873,1.307-1.373,2.5-1.117c1.193,0.256,2.009,1.172,1.821,2.045C293.659,51.563,292.54,52.063,291.346,51.807z"/>
				<g>
					<path style="fill:#BC8158;" d="M295.822,54.391c1.597,0.704,3.344,0.604,4.84-0.299c0.185-0.111,0.016-0.402-0.169-0.29
						c-1.388,0.838-3.016,0.955-4.502,0.299C295.795,54.015,295.625,54.304,295.822,54.391L295.822,54.391z"/>
				</g>
				<g>
					<path d="M293.993,47.21c0.024-0.024,0.048-0.048,0.072-0.072c0.256-0.256,0.256-0.692,0-0.949
						c-0.257-0.257-0.692-0.257-0.948,0c-0.024,0.024-0.048,0.048-0.072,0.072c-0.256,0.256-0.256,0.692,0,0.949
						C293.301,47.467,293.736,47.467,293.993,47.21L293.993,47.21z"/>
				</g>
				<g>
					<path d="M302.501,45.706c-0.024,0-0.048,0-0.072,0c-0.351,0-0.687,0.308-0.671,0.671c0.016,0.363,0.295,0.671,0.671,0.671
						c0.024,0,0.048,0,0.072,0c0.351,0,0.687-0.309,0.671-0.671C303.156,46.013,302.877,45.706,302.501,45.706L302.501,45.706z"/>
				</g>
				<g>
					<path style="fill:#504866;" d="M291.554,45.36c0.73-0.375,1.497-0.611,2.309-0.724c0.284-0.039,0.163-0.47-0.119-0.431
						c-0.85,0.118-1.653,0.377-2.416,0.769C291.072,45.106,291.298,45.492,291.554,45.36L291.554,45.36z"/>
				</g>
				<g>
					<path style="fill:#504866;" d="M301.786,44.053c0.606,0.081,1.196,0.25,1.755,0.498c0.261,0.116,0.488-0.269,0.226-0.386
						c-0.637-0.283-1.29-0.466-1.98-0.559C301.502,43.567,301.505,44.015,301.786,44.053L301.786,44.053z"/>
				</g>
			</g>
		</g>
		<g>
			<g>
				<g>
					<path style="fill:#70C3D6;" d="M387.052,148.24l-1.992,8.667c0,0-68.684,7.112-68.439,13.979
						c0.245,6.867,37.769,57.144,39.24,56.163c1.471-0.981-16.677-47.824-16.677-47.824s43.56-2.698,52.682-5.396
						c9.121-2.698,24.806-7.597,19.784-24.522"/>
				</g>
				<g>
					<g>
						<g>
							<g>
								<g>
									
										<rect x="394.443" y="182.263" transform="matrix(0.3387 -0.9409 0.9409 0.3387 77.6046 500.1948)" width="0.378" height="25.256"/>
								</g>
							</g>
							<g>
								<g>
									
										<rect x="376.164" y="194.618" transform="matrix(0.8812 -0.4728 0.4728 0.8812 -45.6074 208.1418)" width="30.261" height="0.378"/>
								</g>
							</g>
							<g>
								<g>
									<path style="fill:#D39C44;" d="M409.899,184.092c0,0,14.723,59.954,11.809,60.278
										c-2.914,0.324-18.678-57.741-18.678-57.741"/>
								</g>
							</g>
							<g>
								<g>
									<path style="fill:#D39C44;" d="M384.631,186.083c0,0-21.372,51.972-23.8,51c-2.429-0.971,12.791-52.992,12.791-52.992"/>
								</g>
							</g>
						</g>
						<g>
							<g>
								<polyline style="fill:#C48F43;" points="409.565,183.412 410.909,188.257 403.402,187.992 403.03,186.245 								"/>
							</g>
						</g>
						<g>
							<g>
								<polyline style="fill:#C48F43;" points="384.227,186.65 373.298,184.383 372.788,186.967 383.562,188.667 								"/>
							</g>
						</g>
					</g>
					<g>
						<g>
							<path style="fill:#EAEAEA;" d="M374.86,185.274c0,0,31.467,8.743,41.667-7.286c10.2-16.029,8.5-50.272-4.129-58.286
								c0,0,0.971,31.815-1.7,37.158c-2.671,5.343-40.557,19.429-40.8,21.614C369.655,180.659,368.165,185.031,374.86,185.274z"/>
						</g>
					</g>
					<g style="opacity:0.33;">
						<g>
							<path style="fill:#D6D6D6;" d="M370.303,182.44c0,0,0.809,1.862,5.748,2.671c4.938,0.809,20.325,1.781,20.325,1.781
								s-0.735-1.457-7.292-1.457c-6.557,0-16.514-1.457-16.919-2.024"/>
						</g>
					</g>
				</g>
			</g>
			<g>
				<g>
					<path style="fill:#BAB9B9;" d="M273.456,108.306c-0.613,0.245-1.717,1.962-1.717,1.962l21.95,32.496h42.919l-0.736-1.594
						l-41.57-0.245L273.456,108.306z"/>
				</g>
				<g>
					<polyline style="fill:#B2B2B2;" points="300.189,135.161 283.757,110.636 273.81,108.86 294.425,141.538 335.873,141.17 
						329.619,135.529 					"/>
				</g>
				<g>
					<path style="fill:#D4EFFC;" d="M275.786,111.771c0.026,0,0.136,0.13,0.319,0.371c2.451,3.232,17.952,26.484,17.952,26.484
						l5.028-4.66l-13.611-20.356"/>
				</g>
			</g>
			<g>
				<g>
					<g>
						<path style="fill:#FFDFAB;" d="M336.198,135.977c0,0-9.22-3.556-10.079-2.943c-0.858,0.613-7.358,4.169-7.358,4.169
							s0.368,0.368,3.556,0c3.188-0.368,9.81,1.471,9.81,1.471l4.979,0.397"/>
					</g>
					<g>
						<path style="fill:#AFC46E;" d="M379.4,108.827c-0.368-0.074-10.847,15.193-10.847,15.193l-32.355,11.956l1.08,3.679
							l23.433-4.966l24.349-14.899"/>
					</g>
				</g>
				<g>
					<g>
						<g>
							<path style="fill:#0A7D8A;" d="M411.302,105.787c-0.747-1.626-1.965-2.978-2.999-4.425c0.423-1.771,0.321-3.685-0.191-5.446
								c-0.743-2.554-2.247-4.822-3.93-6.882c0.729,0.04,1.203-0.879,1.004-1.581c-0.188-0.661-0.747-1.134-1.31-1.538
								c-0.745-1.726-2.701-3.185-4.181-3.993c-1.273-0.695-2.746-1.002-4.131-1.39c-1.535-0.43-3.069-0.86-4.604-1.29
								c-0.135-0.224-0.37-0.391-0.597-0.535c-2.937-1.857-6.363-2.935-9.834-3.093c0.621-0.382,0.714-1.305,0.371-1.948
								c-0.343-0.643-0.998-1.054-1.652-1.374c-2.026-0.992-4.294-1.387-6.544-1.558c-1.732-0.131-3.491-0.134-5.188,0.24
								c-5.247,1.158-9.332,6.279-9.294,11.652c0.001,0.192,0.012,0.398,0.13,0.549c0.465,0.601,1.416-0.5,2.122-0.219
								c-0.668,0.565-0.056,1.905,0.808,1.772c0.306-0.047,0.577-0.232,0.882-0.285c0.758-0.13,1.389,0.561,1.806,1.208
								c2.1,3.26,2.977,7.285,2.444,11.125c-1.852,3.766-4.264,8.573-1.887,12.201c0.166,1.45,0.612,2.904,1.721,3.815
								c0.586,0.482,1.306,0.766,2.024,1.009c7.704,2.603,16.111,1.153,24.127-0.21c2.013-0.342,4.342-0.592,5.852,0.782
								c0.611,0.556,1.006,1.322,1.638,1.855c0.632,0.532,1.695,0.737,2.224,0.102l6.536,2.818c1.529-1.7,2.163-4.077,1.989-6.363
								C411.817,110.608,412.429,108.239,411.302,105.787z M365.953,98.997c-0.344,1.313-0.772,2.607-1.064,3.934
								c-0.333,1.515-0.475,3.07-0.443,4.621C363.473,104.908,364.631,101.786,365.953,98.997z M409.881,104.469
								c0.884,1.312,1.549,2.734,1.488,4.352c-0.04,1.064-0.377,2.074-0.848,3.03c-0.13-0.744-0.336-1.471-0.611-2.173
								c0.351-1.3,0.353-2.637-0.347-4.114c-0.445-0.94-1.128-1.75-1.846-2.536c0.151-0.315,0.283-0.638,0.392-0.969
								C408.699,102.86,409.325,103.644,409.881,104.469z M392.095,80.848c-0.384-0.076-0.831-0.193-0.973-0.558
								c-0.053-0.136-0.052-0.283-0.048-0.43c2.208,0.601,4.431,1.179,6.609,1.869c1.569,0.497,3.947,1.819,5.158,3.494
								C399.579,83.104,395.913,81.604,392.095,80.848z M407.001,104.961c-0.131-0.456,0.161-0.912,0.403-1.32
								c0.013-0.022,0.022-0.046,0.035-0.069c1.043,1.168,1.907,2.409,2.103,4.011c0.054,0.441,0.043,0.85-0.002,1.244
								c-0.567-1.181-1.308-2.286-2.162-3.281C407.226,105.368,407.065,105.186,407.001,104.961z"/>
						</g>
						<g>
							<path style="fill:#0E6D72;" d="M377.527,94.472c-2.444,1.821-3.858,4.719-4.738,7.637c-0.88,2.919-1.317,5.962-2.297,8.848
								c-0.276,0.812-0.594,1.702-0.282,2.501c0.537,1.37,2.455,1.466,3.87,1.063c4.161-1.184,7.564-4.809,8.342-9.065
								c0.778-4.256-1.189-8.921-4.855-11.218"/>
						</g>
					</g>
					<g>
						<g>
							<g>
								<g>
									<path style="fill:#FFDFAB;" d="M370.29,96.996c0,0,4.389-1.58,7.21,0c2.82,1.58,5.028-1.609,5.028-1.609l-7.971-5.641"/>
								</g>
								<g>
									<path style="fill:#F9CC8A;" d="M375.187,96.449c-0.177-0.004-3.366-0.521-5.94,1.348c-0.064,0.046-0.127,0.094-0.19,0.143
										c-2.603,2.038,4.009-4.492,4.009-4.492s-0.597,2.736,2.071,2.482"/>
								</g>
							</g>
							<g>
								<path style="fill:#FFDFAB;" d="M372.84,86.804c-0.491-0.245-6.499-0.245-6.254-5.641l0.245-3.434
									c-0.408,0.306-2.934,3.33-4.196,6.668l0-0.002c0,0-3.191,7.16-1.352,7.252c0.3,0.015,0.561-0.004,0.804-0.034
									c0.407,3.661,1.311,7.33,1.311,7.33s3.094,0.779,5.518-0.858c2.784-1.881,7.527-7.643,7.48-7.603
									C376.396,90.482,373.33,87.049,372.84,86.804z"/>
							</g>
							<g>
								<path style="fill:#FFC9AE;" d="M367.537,86.697c0.405,0.347,0.353,1.074-0.118,1.624c-0.471,0.55-1.18,0.715-1.586,0.368
									c-0.405-0.347-0.353-1.074,0.118-1.624C366.422,86.515,367.132,86.35,367.537,86.697z"/>
							</g>
							<g>
								<path style="fill:#F9CC8A;" d="M361.029,91.573c0,0,0.897,0.171,1.204,0c0.307-0.171,0.736-0.784,0.736-0.784"/>
							</g>
						</g>
						<g>
							<path style="fill:#B3E8E2;" d="M366.165,84.29c0,2.082-0.716,3.771-1.598,3.771s-1.598-1.688-1.598-3.771
								c0-2.083,0.716-3.771,1.598-3.771S366.165,82.207,366.165,84.29z"/>
							<path style="fill:#017264;" d="M364.567,88.132c-0.936,0-1.67-1.688-1.67-3.843c0-2.154,0.734-3.842,1.67-3.842
								c0.936,0,1.67,1.688,1.67,3.842C366.236,86.445,365.503,88.132,364.567,88.132z M364.567,80.591
								c-0.842,0-1.527,1.659-1.527,3.699c0,2.04,0.685,3.7,1.527,3.7c0.842,0,1.527-1.66,1.527-3.7
								C366.093,82.25,365.408,80.591,364.567,80.591z"/>
						</g>
						<g>
							<g>
								<path style="fill:#AF8751;" d="M362.618,94.547c0.076-0.088,0.125-0.171,0.175-0.277c0.022-0.046,0.047-0.161,0.083-0.195
									c0.152-0.041,0.305-0.082,0.457-0.124c0.025,0.023,0.049,0.047,0.074,0.07c0.162,0.068,0.237,0.144,0.429,0.123
									c0.338-0.037,0.608-0.313,0.603-0.654c-0.001-0.092-0.145-0.092-0.143,0c0.005,0.329-0.326,0.58-0.642,0.491
									c-0.172-0.048-0.258-0.226-0.431-0.266c-0.423-0.098-0.518,0.515-0.706,0.731C362.456,94.515,362.557,94.616,362.618,94.547
									L362.618,94.547z"/>
							</g>
						</g>
					</g>
				</g>
				<g>
					<g>
						<path style="fill:#DBD8CC;" d="M334.642,93.248c-0.18,0.053-4.353,14.305-4.353,14.305s0.736,6.607,6.56,3.567l6.744-14.444
							C343.594,96.675,340.037,91.66,334.642,93.248z"/>
					</g>
					<g>
						<g>
							<g>
								<path style="fill:#B3CC76;" d="M409.137,121.139c-3.188-22.318-17.781-26.978-22.686-27.719
									c-4.905-0.741-6.867,1.15-6.867,1.15c-3.606,2.981-5.087,7.768-5.244,13.346c-4.988,8.988-10.871,21.623-10.871,21.623
									l-21.061-22.808l-1.471,4.389c0.552,0.945,21.521,37.371,26.487,32.678c2.2-2.079,6.025-9.808,9.619-17.788
									c3.807,13.828,10.268,26.522,10.268,26.522l24.28-1.962C411.589,150.569,412.325,143.457,409.137,121.139z"/>
							</g>
							<g>
								<path style="fill:#A5B76C;" d="M377.042,126.009c0,0,4.198-9.346,4.014-8.61c-0.184,0.736,1.637,25.001,2.792,27.624
									S377.042,126.009,377.042,126.009z"/>
							</g>
						</g>
						<g>
							<path style="fill:#FFDFAB;" d="M342.108,107.624l-1.172-6.105c0,0-2.922-3.384-5.742-4.083
								c-2.82-0.699-4.169,3.102-4.169,3.102l-0.736,2.698c0,0,4.047,1.594,4.905,2.207c0.858,0.613,4.257,6.131,6.114,6.315"/>
						</g>
					</g>
				</g>
			</g>
			<g>
				<g>
					<g>
						
							<rect x="284.908" y="141.009" transform="matrix(-1 -1.224647e-16 1.224647e-16 -1 664.8661 289.249)" style="fill:#C1C1C1;" width="95.049" height="7.231"/>
					</g>
				</g>
				<g>
					<g>
						<polyline style="fill:#DBDBDB;" points="375.441,148.24 374.865,152.696 362.062,251.72 353.7,251.72 353.7,246.11 
							299.346,245.362 297.674,249.85 288.476,251.72 288.476,148.24 						"/>
					</g>
				</g>
				<g style="opacity:0.59;">
					<g>
						
							<rect x="288.476" y="148.24" transform="matrix(-1 -1.224647e-16 1.224647e-16 -1 663.3412 300.9175)" style="fill:#C6C5C4;" width="86.39" height="4.437"/>
					</g>
				</g>
			</g>
		</g>
	</g>
	<g>
		<g>
			<g>
				<g>
					<g>
						<path style="fill:#BCE1EC;" d="M128.164,390.175c0,0-9.457,2.356-8.311,4.648c1.146,2.293,23.928,21.063,24.788,19.057
							c0.86-2.006-9.887-20.633-9.887-20.633"/>
					</g>
					<g>
						<path style="fill:#52A0D3;" d="M95.065,324.757c0,0-5.158,16.908,0,22.639c5.158,5.731,62.101-0.287,62.43,1.719
							c0.329,2.006-31.159,37.128-29.17,41.06c1.988,3.932,6.704,5.651,6.782,5.365c0.078-0.286,31.254-30.059,36.299-35.376
							c5.045-5.317,14.653-20.219,3.688-24.804c-10.965-4.585-54.173-9.457-54.173-9.457"/>
					</g>
				</g>
				<g>
					<g>
						<g>
							<g>
								<g>
									<path style="fill:#D34897;" d="M123.644,267.973c0.955,0.898,11.463,12.664,11.463,12.664l-7.68,12.513
										c0,0-4.356-5.49-5.884-9.535"/>
								</g>
								<g>
									<path style="fill:#DD58AB;" d="M133.46,278.795c-0.08-0.089-7.916,13.619-7.916,13.619s2.207,1.77,2.78,1.675
										c0.573-0.096,7.833-13.527,7.833-13.527l-1.719-2.521L133.46,278.795z"/>
								</g>
							</g>
							<g>
								<g>
									<path style="fill:#F7D3B5;" d="M163.143,251.182c-0.143-0.113,0.143-2.467-2.149-2.467c-2.293,0-10.89,3.725-10.89,3.725
										s1.785,8.822,1.664,9.258l-8.398,30.295l-8.263-10.32l-6.065,11.476c0,0,9.456,6.288,18.633,10.873
										c8.577,4.285,8.5-36.603,8.453-42.324h0.497c0.494-0.344,2.219-4.817,2.219-5.39
										C158.844,255.736,163.286,251.294,163.143,251.182z"/>
								</g>
								<g>
									<g>
										<path style="fill:#9175A9;" d="M172.9,244.798h-8.727c-1.16,0-2.128,0.816-2.365,1.904
											c-2.79-0.204-5.475,1.921-5.661,4.976c-0.208,3.415,2.502,5.849,5.605,6.094v0.64c0,1.815,1.471,3.287,3.287,3.287h6.954
											c1.815,0,3.287-1.472,3.287-3.287v-11.235C175.279,245.863,174.214,244.798,172.9,244.798z M157.473,252.003
											c-0.002-2.416,2.091-4.161,4.278-3.966v8.412C159.468,256.238,157.475,254.52,157.473,252.003z"/>
									</g>
									<g>
										<path style="fill:#F7D3B5;" d="M154.307,252.235c0,0,2.675-2.087,4.776-1.896c2.102,0.191,1.528,1.337,1.528,1.337
											l-2.961,1.572l-0.95,1.245"/>
									</g>
									<g>
										<rect x="171.406" y="244.798" style="fill:#A895BC;" width="1.624" height="16.901"/>
									</g>
								</g>
							</g>
						</g>
						<g>
							<g>
								<path style="fill:#826D4E;" d="M168.081,242.812c-1.384-0.941-2.534-2.389-0.949-3.746c0.698-0.598,1.563-1.014,2.132-1.756
									c1.221-1.593-0.035-3.47-1.645-4.122c-0.266-0.108-0.381,0.323-0.118,0.43c1.675,0.678,2.431,2.52,0.997,3.855
									c-0.682,0.634-1.583,1.031-2.171,1.769c-1.259,1.578,0.222,3.066,1.53,3.956
									C168.094,243.358,168.317,242.972,168.081,242.812L168.081,242.812z"/>
							</g>
						</g>
						<g>
							<g>
								<path style="fill:#826D4E;" d="M168.399,240.647c-0.392-0.581,0.984-0.853,1.303-0.998c0.405-0.184,0.776-0.491,0.724-0.977
									c-0.03-0.282-0.477-0.285-0.446,0c0.071,0.66-1.1,0.71-1.511,0.973c-0.416,0.267-0.776,0.75-0.454,1.226
									C168.174,241.108,168.561,240.885,168.399,240.647L168.399,240.647z"/>
							</g>
						</g>
						<g>
							<g>
								<path style="fill:#826D4E;" d="M166.471,236.747c0.658-0.242,0.72-0.985,0.376-1.544c-0.226-0.367-0.596-0.537-0.968-0.724
									c-0.413-0.207-0.898-0.372-1.066-0.877c-0.189-0.572,0.196-1.168,0.736-1.344c0.272-0.089,0.155-0.519-0.118-0.43
									c-0.75,0.245-1.236,0.997-1.066,1.793c0.085,0.396,0.328,0.679,0.655,0.908c0.265,0.186,0.576,0.279,0.854,0.44
									c0.224,0.13,1.342,1.031,0.48,1.347C166.086,236.415,166.201,236.846,166.471,236.747L166.471,236.747z"/>
							</g>
						</g>
					</g>
					<g>
						<g>
							<path style="fill:#D34897;" d="M117.839,252.049c0,0-19.035,3.532-23.477,35.868c-4.442,32.336-3.439,45.375-3.439,45.375
								s15.905-2.293,21.063-2.579c5.158-0.286,21.206-1.003,21.206-1.003s-6.734-42.115-5.445-45.13
								c1.29-3.014,1.023-15.193-0.635-17.772"/>
						</g>
						<g>
							<g>
								<g>
									<path style="fill:#916614;" d="M135.842,225.559c-3.689-6.9-8.941-8.131-13.147-7.609c1.801-0.813,4.029-0.39,5.929,0.027
										c0.14,0.031,0.2-0.184,0.059-0.215c-2.126-0.467-4.729-0.951-6.648,0.273c-0.822-0.22-1.611-0.259-2.378,0.275
										c-0.751,0.523-1.323,1.372-1.66,2.211c-0.776,1.931-0.328,4.035,0.985,5.581c-0.063-0.002-0.126-0.002-0.189,0.001
										c-1.441-0.962-3.603,0.157-4.924,0.946c-0.123,0.073-0.011,0.266,0.112,0.192c1.151-0.687,3.069-1.703,4.424-1.094
										c-0.238,0.046-0.483,0.13-0.734,0.255c-1.074,0.221-2.049,0.677-2.703,1.678c-0.989,1.514-1.523,3.381-0.703,5.079
										c0.005,0.009,0.013,0.009,0.019,0.016c0.621,2.421,2.707,9.302,2.782,9.507l4.427-12.939
										c2.179-0.164,10.224-0.718,12.2-0.1c1.411,0.441,2.414,3.54,2.978,5.86c-0.063,0.935-0.282,1.823-0.734,2.59
										c-0.073,0.124,0.119,0.236,0.192,0.112c0.366-0.621,0.583-1.318,0.693-2.053c0.252,1.127,0.382,1.945,0.382,1.945
										S139.711,232.795,135.842,225.559z M117.994,221.24c0.216-0.86,0.687-1.719,1.323-2.341
										c0.689-0.674,1.423-0.831,2.225-0.721c-3.046,1.023-2.914,5.834-2.668,7.418
										C117.967,224.343,117.605,222.791,117.994,221.24z M114.106,231.817c-0.137-1.26,0.346-2.544,1.055-3.624
										c0.467-0.711,1.111-1.128,1.835-1.379C115.198,228.063,114.15,230.066,114.106,231.817z"/>
								</g>
								<g>
									<g>
										<path style="fill:#F7D3B5;" d="M116.841,250.061c0.082,0.282-1.018,8.501-0.692,8.788
											c0.326,0.287,11.979,18.531,11.979,14.328s-1.146-7.164-0.955-8.788c0.191-1.624,2.961-7.451,2.961-7.451"/>
									</g>
									<g>
										<path style="fill:#EDC09F;" d="M117.533,248.198l-0.692,7.164c0,0,1.645,2.579,2.609,3.439
											c0.964,0.86,2.11,0.423,2.11,0.423s2.006,0.228,3.439,0.111"/>
									</g>
									<g>
										<g>
											<path style="fill:#F7D3B5;" d="M136.153,240.795c-0.022-0.147-0.034-0.641-0.051-1.341
												c-0.062-2.482-0.188-7.56-1.039-8.976c-1.09-1.815-5.649-4.203-8.821-3.534c-3.172,0.669-6.145,1.433-6.244,2.484
												c-0.099,1.051-2.18,4.967-2.478,5.158c-0.297,0.191-0.595,10.603-0.595,10.603s-0.595,8.119,1.388,10.125
												c1.982,2.006,4.559,2.961,6.442,3.725c1.883,0.764,8.623-0.764,10.109-6.209"/>
										</g>
										<g>
											<path style="fill:#F7D3B5;" d="M116.925,245.189c-1.288-1.051-2.28-5.063-1.288-5.731
												c0.991-0.669,1.429,1.618,1.429,1.618"/>
										</g>
									</g>
								</g>
							</g>
							<g>
								<path style="fill:#D8A27D;" d="M126.497,245.189c0.39,0.359,2.396,0.932,2.396,0.932l1.242-0.932v-0.883l-1.819,0.573"/>
							</g>
							<g>
								<g>
									<path style="fill:#684916;" d="M117.217,237.72c0,0,1.073,2.88,1.073,4.543s0.774,9.113,3.253,9.304
										c2.479,0.191,3.457-1.506,3.457-1.506h0.909c0,0-0.837,1.697,1.169,2.365c2.006,0.669,4.299-0.382,4.585-1.624
										c0.287-1.242,0.287-1.242,0.287-1.242l0.955,0.096c0,0,0.382,1.719,1.051,1.242c0.669-0.478,1.242-2.006,1.242-2.006
										s-0.382,6.305-0.86,7.451c-0.478,1.146-3.388,3.568-8.429,3.026c-5.04-0.542-9.99-4.459-9.76-7.993"/>
								</g>
								<g>
									<path style="fill:#775119;" d="M123.735,250.038c-0.072-0.215,1.353-2.221,4.581-2.507
										c3.228-0.287,5.377,0.815,5.664,1.411c0.287,0.595,0,0.81,0,0.81l-2.579,0.286c0,0-1.021-1.075-2.481-0.788
										c-1.459,0.286-4.284,1.619-4.284,1.619"/>
								</g>
								<g>
									<g>
										<path style="fill:#684916;" d="M127.119,250.358c0.159,0.471,0.619,0.594,1.077,0.51c0.243-0.044,0.469-0.155,0.712-0.197
											c0.3-0.052,0.594,0.023,0.891-0.001c0.293-0.023,0.501-0.102,0.694-0.329c0.092-0.109-0.065-0.267-0.158-0.158
											c-0.365,0.43-0.926,0.19-1.384,0.257c-0.451,0.066-1.371,0.592-1.619-0.141
											C127.289,250.164,127.073,250.222,127.119,250.358L127.119,250.358z"/>
									</g>
								</g>
							</g>
							<g>
								<ellipse style="fill:#F4B295;" cx="121.142" cy="243.027" rx="1.97" ry="1.617"/>
							</g>
							<g>
								<path style="fill:#F4B295;" d="M136.077,242.682c0,0.893-0.882,1.617-1.97,1.617c-1.088,0-1.97-0.724-1.97-1.617
									s0.882-1.617,1.97-1.617C135.195,241.065,136.077,241.789,136.077,242.682z"/>
							</g>
							<g>
								<g>
									<path style="fill:#684916;" d="M124.637,240.553c0.024-0.024,0.048-0.048,0.072-0.072c0.255-0.255,0.255-0.69,0-0.946
										c-0.256-0.256-0.69-0.256-0.946,0c-0.024,0.024-0.048,0.048-0.072,0.072c-0.255,0.255-0.255,0.69,0,0.946
										C123.948,240.809,124.381,240.809,124.637,240.553L124.637,240.553z"/>
								</g>
							</g>
							<g>
								<g>
									<path style="fill:#684916;" d="M132.045,240.104c0.861,0,0.862-1.337,0-1.337
										C131.185,238.767,131.183,240.104,132.045,240.104L132.045,240.104z"/>
								</g>
							</g>
							<g>
								<g>
									<path style="fill:#684916;" d="M121.142,239.451c-0.315,0-0.621-0.167-0.783-0.463c-0.237-0.432-0.079-0.973,0.353-1.21
										c0.096-0.053,2.377-1.285,4.72-0.961c0.488,0.068,0.829,0.518,0.761,1.005c-0.068,0.488-0.517,0.827-1.005,0.761
										c-1.735-0.24-3.6,0.748-3.619,0.758C121.434,239.416,121.287,239.451,121.142,239.451z"/>
								</g>
							</g>
							<g>
								<g>
									<path style="fill:#684916;" d="M129.707,237.574c-0.292-0.12-0.511-0.39-0.548-0.726c-0.055-0.489,0.297-0.93,0.786-0.986
										c0.109-0.012,2.687-0.287,4.732,0.902c0.426,0.248,0.57,0.793,0.323,1.219c-0.248,0.425-0.792,0.569-1.219,0.323
										c-1.514-0.881-3.615-0.674-3.636-0.672C129.99,237.652,129.841,237.629,129.707,237.574z"/>
								</g>
							</g>
						</g>
					</g>
					<g>
						<g>
							<g>
								<path style="fill:#F7D3B5;" d="M110.54,291.65c0,0,9.552,17.212,13.946,17.336c4.394,0.123,46.806-6.823,46.806-6.823
									c0.286-0.887,3.439-3.036,3.439-3.036l7.737,3.033c0,0,0.306-2.603-0.707-3.176c-1.013-0.573-6.744-5.076-7.747-4.042
									c-1.003,1.033-6.448,3.469-6.448,3.469h-36.824l-7.734-10.903"/>
							</g>
							<g>
								<polyline style="fill:#E5BFA3;" points="123.641,288.398 111.865,293.945 109.966,290.864 123.244,286.47 								"/>
							</g>
							<g>
								<path style="fill:#D34897;" d="M106.146,269.18c0,0-4.394,5.186-0.764,17.781l2.866,6.003l16.239-6.003
									c0,0-3.057-12.623-4.585-13.961"/>
							</g>
						</g>
						<g>
							<path style="fill:#DD58AB;" d="M124.486,283.443c-0.85,0.194-20.346,3.63-19.869,4.585c0.478,0.955,0.764,2.18,0.764,2.18
								s-0.287,4.019,0.86,3.738c1.146-0.281,19.009-7.064,19.009-7.064"/>
						</g>
					</g>
				</g>
			</g>
			<g>
				<g>
					<g>
						<g>
							
								<rect x="95.65" y="371.941" transform="matrix(0.9409 -0.3387 0.3387 0.9409 -119.5297 59.4492)" width="29.801" height="0.446"/>
						</g>
						<g>
							
								<rect x="114.267" y="354.212" transform="matrix(0.4728 -0.8812 0.8812 0.4728 -267.4954 297.0467)" width="0.446" height="35.707"/>
						</g>
						<g>
							<path style="fill:#D39C44;" d="M92.536,359.422c0,0-17.373,70.744-13.934,71.126c3.439,0.382,22.04-68.133,22.04-68.133"/>
						</g>
						<g>
							<path style="fill:#D39C44;" d="M122.352,361.772c0,0,25.218,61.326,28.084,60.18c2.866-1.146-15.093-62.529-15.093-62.529"/>
						</g>
					</g>
					<g>
						<polyline style="fill:#C48F43;" points="92.931,358.62 91.344,364.337 100.203,364.025 100.642,361.963 						"/>
					</g>
					<g>
						<polyline style="fill:#C48F43;" points="122.83,362.44 135.725,359.766 136.326,362.815 123.614,364.82 						"/>
					</g>
				</g>
				<g>
					<path style="fill:#EAEAEA;" d="M133.882,360.816c0,0-37.13,10.316-49.166-8.597c-12.036-18.914-10.03-59.32,4.872-68.777
						c0,0-1.146,37.541,2.006,43.845c3.152,6.305,47.857,22.926,48.144,25.505C140.024,355.372,141.782,360.53,133.882,360.816z"/>
				</g>
				<g style="opacity:0.33;">
					<path style="fill:#D6D6D6;" d="M139.26,357.473c0,0-0.955,2.197-6.782,3.152c-5.827,0.955-23.983,2.102-23.983,2.102
						s0.867-1.719,8.604-1.719s19.487-1.719,19.964-2.388"/>
				</g>
			</g>
		</g>
		<g>
			<g>
				<rect x="126.96" y="306.99" style="fill:#C1C1C1;" width="97.72" height="8.311"/>
			</g>
			<g>
				<polyline style="fill:#DBDBDB;" points="131.602,315.301 132.195,320.422 145.358,434.227 153.955,434.227 153.955,427.779 
					209.836,426.919 211.555,432.078 221.012,434.227 221.012,315.301 				"/>
			</g>
			<g style="opacity:0.59;">
				<rect x="132.195" y="315.301" style="fill:#C6C5C4;" width="88.817" height="5.1"/>
			</g>
		</g>
		<g>
			<g>
				<g>
					<path style="fill:#8E8E8E;" d="M188.104,306.99c0.252-0.675,23.164,0,23.164,0l12.323-35.105l-1.29-0.621h-22.926"/>
				</g>
				<g>
					<path style="fill:#6D6B6F;" d="M187.34,303.742l-33.051,0.764c0,0-5.731,2.484-5.158,2.484c0.573,0,38.973,0,38.973,0
						l12.991-34.771l-1.719-0.955l-12.036,31.523"/>
				</g>
			</g>
			<g>
				<path style="fill:#9B9B9B;" d="M211.099,290.65c-0.577,1.975-2.174,3.246-3.566,2.839c-1.393-0.407-2.054-2.338-1.477-4.313
					c0.577-1.975,2.174-3.246,3.566-2.839C211.015,286.744,211.677,288.675,211.099,290.65z"/>
			</g>
		</g>
		<g>
			<g>
				<g>
					<g>
						<rect x="202.618" y="285.435" style="fill:#F4C42A;" width="0.879" height="14.988"/>
					</g>
					<g>
						<path style="fill:#EB7D64;" d="M202.687,285.545c0,0-0.061-0.366,0.256-0.452c0.317-0.086,0.488,0.073,0.488,0.452"/>
					</g>
					<g>
						<rect x="202.587" y="285.435" style="fill:#D3D3D3;" width="0.94" height="0.671"/>
					</g>
				</g>
				<g>
					<g>
						
							<rect x="197.671" y="286.936" transform="matrix(0.9777 -0.2099 0.2099 0.9777 -57.3998 48.1552)" style="fill:#F4C42A;" width="0.879" height="14.987"/>
					</g>
					<g>
						<path style="fill:#EB7D64;" d="M196.197,287.289c0,0-0.137-0.345,0.156-0.495c0.292-0.15,0.493-0.031,0.572,0.339"/>
					</g>
					<g>
						
							<rect x="196.136" y="287.096" transform="matrix(0.9777 -0.2101 0.2101 0.9777 -55.9894 47.7102)" style="fill:#D3D3D3;" width="0.94" height="0.671"/>
					</g>
				</g>
				<g>
					<g>
						<g>
							
								<rect x="199.389" y="288.294" transform="matrix(0.9853 -0.1706 0.1706 0.9853 -47.243 38.4199)" style="fill:#757575;" width="0.985" height="11.492"/>
						</g>
						<g>
							<path style="fill:#939393;" d="M198.624,288.426c0,0-0.192-0.442,0.08-0.588c0.272-0.146,0.452,0.228,0.497,0.488"/>
						</g>
					</g>
					<g>
						<path style="fill:#939393;" d="M199.673,291.048c0.223,1.289,0.337,2.345,0.254,2.359c-0.083,0.014-0.331-1.018-0.554-2.307
							c-0.223-1.288-0.337-2.345-0.254-2.359C199.201,288.727,199.45,289.759,199.673,291.048z"/>
					</g>
				</g>
				<g>
					<g>
						<g>
							
								<rect x="202.066" y="288.069" transform="matrix(0.9994 0.0345 -0.0345 0.9994 10.269 -6.8209)" style="fill:#757575;" width="0.984" height="11.493"/>
						</g>
						<g>
							<path style="fill:#939393;" d="M202.477,288.063c0,0-0.098-0.472,0.198-0.559c0.296-0.087,0.396,0.316,0.387,0.579"/>
						</g>
					</g>
					<g>
						<path style="fill:#939393;" d="M202.966,290.843c-0.045,1.307-0.15,2.364-0.234,2.361c-0.084-0.003-0.116-1.065-0.071-2.372
							c0.045-1.307,0.15-2.364,0.234-2.361C202.98,288.475,203.012,289.536,202.966,290.843z"/>
					</g>
				</g>
			</g>
			<g>
				<path style="fill:#D2D8D7;" d="M202.958,307.095h-4.714c-1.596,0-2.89-1.294-2.89-2.89v-9.272c0-0.524,0.425-0.949,0.949-0.949
					h8.69c0.472,0,0.854,0.383,0.854,0.854v9.366C205.848,305.801,204.554,307.095,202.958,307.095z"/>
			</g>
			<g>
				<path style="fill:#EAEAEA;" d="M203.527,294.04v12.464c0,0,0.769-0.28,0.899-0.67c0.13-0.391,0-11.794,0-11.794"/>
			</g>
		</g>
	</g>
	<g>
		<g>
			<g>
				<g>
					
						<rect x="229.796" y="300.948" transform="matrix(-1 -1.224647e-16 1.224647e-16 -1 572.8033 610.5088)" style="fill:#C1C1C1;" width="113.211" height="8.613"/>
				</g>
				<g>
					<polyline style="fill:#DBDBDB;" points="337.628,309.561 336.942,314.868 321.692,432.814 311.732,432.814 311.732,426.131 
						246.993,425.24 245.001,430.586 234.045,432.814 234.045,309.561 					"/>
				</g>
				<g style="opacity:0.59;">
					
						<rect x="234.045" y="309.561" transform="matrix(-1 -1.224647e-16 1.224647e-16 -1 570.987 624.4068)" style="fill:#C6C5C4;" width="102.897" height="5.285"/>
				</g>
			</g>
			<g>
				<path style="fill:#A5A5A5;" d="M234.045,283.996c0,0,9.492-1.43,9.726-1.664c0.234-0.234,10.533,0,10.533,0l-1.092,6.866"/>
				<g>
					<rect x="248.086" y="267.172" style="fill:#F4C42A;" width="1.404" height="23.952"/>
					<path style="fill:#EB7D64;" d="M248.197,267.348c0,0-0.098-0.585,0.41-0.721c0.507-0.137,0.78,0.117,0.78,0.721"/>
					<rect x="248.037" y="267.172" style="fill:#D3D3D3;" width="1.502" height="1.073"/>
				</g>
				<g>
					
						<rect x="240.18" y="269.571" transform="matrix(0.9777 -0.2102 0.2102 0.9777 -53.7995 56.9236)" style="fill:#F4C42A;" width="1.404" height="23.952"/>
					<path style="fill:#EB7D64;" d="M237.824,270.134c0,0-0.218-0.551,0.249-0.791c0.467-0.24,0.787-0.05,0.914,0.542"/>
					
						<rect x="237.727" y="269.827" transform="matrix(0.9777 -0.2102 0.2102 0.9777 -51.5007 56.1663)" style="fill:#D3D3D3;" width="1.502" height="1.073"/>
				</g>
				<g>
					<g>
						
							<rect x="242.926" y="271.741" transform="matrix(0.9853 -0.1706 0.1706 0.9853 -44.3482 45.6898)" style="fill:#757575;" width="1.573" height="18.367"/>
						<path style="fill:#939393;" d="M241.703,271.952c0,0-0.307-0.706,0.128-0.94c0.435-0.234,0.723,0.364,0.795,0.78"/>
					</g>
					<path style="fill:#939393;" d="M243.379,276.142c0.356,2.059,0.538,3.747,0.405,3.77c-0.133,0.023-0.529-1.628-0.886-3.687
						c-0.357-2.059-0.538-3.747-0.406-3.77C242.626,272.432,243.022,274.083,243.379,276.142z"/>
				</g>
				<g>
					<g>
						
							<rect x="247.204" y="271.381" transform="matrix(0.9994 0.0346 -0.0346 0.9994 9.8485 -8.4063)" style="fill:#757575;" width="1.573" height="18.366"/>
						<path style="fill:#939393;" d="M247.859,271.371c0,0-0.156-0.754,0.317-0.894c0.473-0.14,0.633,0.504,0.619,0.926"/>
					</g>
					<path style="fill:#939393;" d="M248.643,275.815c-0.072,2.089-0.24,3.778-0.374,3.773c-0.134-0.005-0.185-1.702-0.113-3.79
						c0.072-2.089,0.24-3.778,0.375-3.773C248.664,272.029,248.715,273.726,248.643,275.815z"/>
				</g>
				<g>
					<path style="fill:#BAB9B9;" d="M234.045,283.996c0.208,1.248,4.369,16.788,4.369,16.788l11.235,0.273v-17.06H234.045z"/>
					<polygon style="fill:#DDDDDD;" points="249.649,301.056 249.649,283.996 254.642,282.332 252.145,301.056 					"/>
				</g>
			</g>
			<g>
				<g>
					<g>
						<path style="fill:#CC4A72;" d="M369,417.671c-1.307,0.062-11.206,11.82-10.592,12.895c0.614,1.075,5.895,1.996,11.851-5.066
							c5.956-7.061,5.342-6.294,5.342-6.294l0.018,9.825l1.671-0.757v-8.454c0,0,3.684-8.29,0.614-10.592"/>
						<path style="fill:#F9D0AF;" d="M366.237,335.492c-0.409,0.614-2.047,4.708,0,20.263c2.047,15.556,4.912,56.697,4.912,56.697
							s-9.825,14.532-8.392,14.942c1.433,0.409,15.146-13.714,15.146-14.942c0-1.228,0-67.749,0-67.749"/>
					</g>
					<g>
						<path style="fill:#CC4A72;" d="M375.138,421.571c-1.307,0.062-11.206,11.82-10.592,12.895
							c0.614,1.075,5.895,1.996,11.851-5.066c5.956-7.061,5.342-6.294,5.342-6.294l0.018,9.825l1.671-0.757v-8.454
							c0,0,3.684-8.289,0.614-10.592"/>
						<path style="fill:#FFDCBC;" d="M372.375,339.392c-0.409,0.614-2.047,4.708,0,20.263c2.047,15.556,4.912,56.697,4.912,56.697
							s-9.825,14.532-8.392,14.942c1.433,0.409,15.146-13.714,15.146-14.942s0-67.749,0-67.749"/>
					</g>
				</g>
				<g>
					<path style="fill:#751828;" d="M403.592,252.754c-1.904-3.378-4.559-6.267-6.793-9.435c0.057-0.415,0.119-0.821,0.173-1.207
						c0.348-2.481,0.734-4.979,0.655-7.491c-0.113-3.587-1.618-6.624-3.383-9.579c-0.783-2.639-2.278-4.962-4.621-6.405
						c-1.265-0.779-2.728-1.273-3.795-2.307c-1.006-0.975-1.545-2.319-2.243-3.534c-2.442-4.251-7.196-7.075-12.098-7.184
						c-0.328-0.007-0.731,0.073-0.935,0.286c-1.918-0.717-4.323-0.099-5.897,1.312c-1.537,1.377-2.418,3.308-2.965,5.32
						c-0.121-0.003-0.248,0.073-0.254,0.229c-0.008,0.186-0.01,0.371-0.012,0.557c-1.07,1.941-1.5,4.286-1.552,6.51
						c-0.106,4.551,1.759,11.665-3.132,14.425c-0.268,0.151-0.027,0.564,0.241,0.412c3.947-2.227,3.654-7.262,3.461-11.163
						c-0.134-2.719-0.192-5.879,0.736-8.534c-0.593,3.646-0.502,7.403,0.287,11.012c0.153,0.697,0.331,1.395,0.504,2.094
						c-0.512,2.472-1.426,4.864-2.292,7.24c-0.93,2.551-1.823,5.415-2.065,8.24c-1.056,1.664-1.936,3.388-2.222,5.312
						c-0.922,6.201,4.643,12.256,2.982,18.302c-0.667,2.431-2.472,4.575-2.452,7.096c0.015,1.893,1.121,3.672,2.642,4.799
						c1.521,1.127,3.412,1.664,5.296,1.854c2.43,0.245,5.124-0.159,6.798-1.936c0.806-0.855,1.303-1.951,1.987-2.907
						c2.249-3.143,6.302-4.477,10.154-4.789c3.852-0.312,7.74,0.2,11.587-0.17c3.847-0.37,7.879-1.837,9.985-5.077
						C406.91,262.124,405.883,256.819,403.592,252.754z M362.66,233.772c-0.366,3.346-2.588,6.086-4.497,8.936
						c0.451-3.207,1.69-6.451,2.708-9.278c0.515-1.43,0.986-2.873,1.343-4.338C362.571,230.643,362.832,232.2,362.66,233.772z
						 M395.589,228.395c1.341,2.637,1.697,5.471,1.523,8.398c-0.118,1.995-0.475,3.96-0.726,5.938
						c-0.021-0.031-0.04-0.063-0.061-0.094c0.039-2.574-0.033-5.151-0.475-7.691c-0.22-1.267-0.565-2.46-0.994-3.611
						c0.123-1.579,0.044-3.191-0.247-4.739C394.951,227.189,395.28,227.788,395.589,228.395z M394.107,237.995
						c-0.233-1.556,0.204-3.122,0.491-4.669c0.055-0.294,0.099-0.591,0.14-0.89c0.273,0.85,0.494,1.725,0.653,2.638
						c0.393,2.26,0.487,4.553,0.471,6.845c-0.121-0.19-0.25-0.375-0.367-0.568C394.862,240.31,394.288,239.2,394.107,237.995z"/>
					<path style="fill:#FFDCBC;" d="M342.266,245.795c-0.205-0.307-2.968-4.651-2.047-6.47c0,0,0.819,0.227,1.433,1.762
						c0.614,1.535,2.456,4.298,3.582,4.708c1.126,0.409,0.716,5.731,0.716,5.731l16.17,16.989l14.176-10.848l1.721,0.716
						l-15.692,16.375l-18.626-22.003"/>
					<g>
						<path style="fill:#515151;" d="M309.696,253.262c0.258-0.051,0.411,1.382,0.411,1.382l7.676,3.275l35.512-6.14v-0.705"/>
						<path style="fill:#6D6B6F;" d="M342.854,249.582c0-0.614-4.605-20.923-4.605-20.923l-34.386,1.537l5.833,23.071
							L342.854,249.582z"/>
						<polyline style="fill:#6D6B6F;" points="342.854,249.582 353.6,251.117 318.292,257.104 309.696,253.266 						"/>
						<polygon style="fill:#8C8A8E;" points="306.986,232.283 312.205,251.121 339.684,247.73 336.306,230.133 						"/>
						<polygon style="fill:#8C8A8E;" points="313.996,253.266 342.362,249.987 343.777,250.499 315.326,254.183 						"/>
						<polyline style="fill:#8C8A8E;" points="316.094,254.496 317.527,255.411 346.233,251.121 344.135,250.806 						"/>
						<polyline style="fill:#ECEAEF;" points="307.958,232.845 312.87,250.493 338.762,246.674 335.795,231.003 						"/>
					</g>
					<g>
						<path style="fill:#E87A99;" d="M381.718,239.325c0,0-11.203,10.111-13.891,15.326s1.315,30.545,1.156,33.308
							c-0.16,2.763-10.905,21.798-14.436,49.277c-3.531,27.478-2.303,32.237-2.303,32.237l32.084-5.373
							c0,0,9.671,9.518,12.127,6.447c2.456-3.07,1.074-19.956,0-24.562c-1.075-4.605,1.228-39.452,0.46-44.365
							c-0.768-4.912-6.447-13.048-5.68-17.654c0.768-4.605,0.307-42.676-4.145-46.36
							C387.091,237.607,383.407,234.748,381.718,239.325z"/>
						<path style="fill:#D66E8E;" d="M377.658,365.217c0.53-1.526,5.852-59.451,5.852-59.451l0.819,58.334"/>
					</g>
					<g>
						<g>
							<path style="fill:#FFDCBC;" d="M375.906,235.152c0,0,0.942,7.522,0,11.36c-0.942,3.838-5.087,8.29-3.859,8.136
								c1.228-0.153,11.36-10.592,11.974-11.82c0.614-1.228-0.366-9.06-1.257-10.901"/>
							<path style="fill:#F4CAA6;" d="M376.296,243.289v-6.832l4.962-4.53c0,0-3.224,5.221-3.684,6.986
								C377.113,240.678,376.296,243.289,376.296,243.289z"/>
							<path style="fill:#FFDCBC;" d="M367.288,214.12c-0.742,0.196-2.917,15.351,0,20.417c2.917,5.066,5.526,5.68,8.136,3.838
								s8.136-7.215,8.136-7.215v-2.456c0,0,1.689-0.432,2.303-1.981c0.614-1.549-0.921-5.541-2.763-4.619
								c-1.842,0.921-1.996,3.224-1.996,3.224S372.508,212.739,367.288,214.12z"/>
						</g>
						<g>
							<path style="fill:#F6C1A7;" d="M367.466,225.099c-0.149,1.262-0.697,6.231,1.968,5.266c0.143-0.052,0.082-0.283-0.064-0.23
								c-2.284,0.828-1.801-3.895-1.666-5.035C367.723,224.947,367.484,224.948,367.466,225.099L367.466,225.099z"/>
						</g>
						<g>
							<path style="fill:#AF7A66;" d="M368.488,233.79c1.8,0.429,3.577-0.727,4.436-2.261c0.075-0.134-0.131-0.255-0.206-0.121
								c-0.804,1.436-2.467,2.556-4.167,2.151C368.402,233.524,368.339,233.754,368.488,233.79L368.488,233.79z"/>
						</g>
						<g>
							<path style="fill:#010001;" d="M371.436,224.469c0.05,0.231,0.099,0.461,0.149,0.692c0.065,0.3,0.525,0.173,0.46-0.127
								c-0.049-0.231-0.099-0.461-0.149-0.692C371.832,224.041,371.371,224.169,371.436,224.469L371.436,224.469z"/>
						</g>
						<g>
							<path style="fill:#010001;" d="M365.83,225.62c0.046,0.206,0.092,0.412,0.138,0.618c0.067,0.3,0.527,0.173,0.461-0.127
								c-0.046-0.206-0.092-0.412-0.138-0.618C366.224,225.194,365.764,225.321,365.83,225.62L365.83,225.62z"/>
						</g>
						<g>
							<path style="fill:#751828;" d="M371.018,222.619c0.586-0.295,1.252-0.319,1.854-0.054c0.279,0.123,0.522-0.289,0.241-0.412
								c-0.769-0.339-1.584-0.325-2.337,0.054C370.503,222.345,370.744,222.757,371.018,222.619L371.018,222.619z"/>
						</g>
						<g>
							<path style="fill:#751828;" d="M366.519,223.444c-0.662,0.059-1.218,0.499-1.403,1.143c-0.085,0.296,0.375,0.422,0.46,0.127
								c0.123-0.426,0.496-0.752,0.943-0.792C366.823,223.894,366.826,223.416,366.519,223.444L366.519,223.444z"/>
						</g>
						<path style="fill:#FFB9A1;" d="M375.659,225.75c-0.15-0.045-0.297,0.068-0.413,0.173c-0.408,0.37-0.825,0.751-1.074,1.242
							c-0.249,0.491-0.298,1.123,0.025,1.57c0.238,0.33,0.646,0.51,1.052,0.536c0.406,0.025,0.81-0.09,1.178-0.261
							c0.436-0.202,0.847-0.493,1.091-0.907s0.291-0.964,0.032-1.368c-0.215-0.335-0.593-0.52-0.953-0.689
							c-0.221-0.104-0.441-0.208-0.662-0.312c-0.108-0.051-0.222-0.102-0.34-0.091c-0.118,0.011-0.237,0.111-0.222,0.229"/>
					</g>
					<path style="fill:#FFDCBC;" d="M386.001,249.07l-24.188,24.357l-28.449-22.57c-0.561-0.445-0.104-8.03-1.639-8.439
						c-1.535-0.409-5.526-6.55-5.526-6.55s-0.716,0.307,0,2.251c0.716,1.945,1.74,4.605,1.74,4.605s-3.889,2.354-2.763,3.889
						c1.126,1.535,5.936,5.322,5.936,5.322s29.065,32.954,32.135,30.702S394.868,247.873,386.001,249.07z"/>
				</g>
			</g>
		</g>
		<g>
			<g>
				<g>
					<g>
						<g>
							
								<rect x="422.633" y="351.93" transform="matrix(0.3387 -0.9409 0.9409 0.3387 -63.3926 638.9221)" width="0.378" height="25.256"/>
						</g>
					</g>
					<g>
						<g>
							
								<rect x="404.354" y="364.285" transform="matrix(0.8812 -0.4728 0.4728 0.8812 -122.4728 241.6297)" width="30.261" height="0.378"/>
						</g>
					</g>
					<g>
						<g>
							<path style="fill:#D39C44;" d="M438.089,353.759c0,0,14.723,59.954,11.809,60.278s-18.678-57.741-18.678-57.741"/>
						</g>
					</g>
					<g>
						<g>
							<path style="fill:#D39C44;" d="M412.821,355.75c0,0-21.372,51.972-23.8,51c-2.429-0.971,12.791-52.992,12.791-52.992"/>
						</g>
					</g>
				</g>
				<g>
					<g>
						<polyline style="fill:#C48F43;" points="437.754,353.078 439.099,357.924 431.592,357.659 431.219,355.912 						"/>
					</g>
				</g>
				<g>
					<g>
						<polyline style="fill:#C48F43;" points="412.416,356.317 401.487,354.05 400.978,356.634 411.752,358.333 						"/>
					</g>
				</g>
			</g>
			<g>
				<g>
					<path style="fill:#EAEAEA;" d="M403.05,354.94c0,0,31.467,8.743,41.667-7.286c10.2-16.029,8.5-50.272-4.129-58.286
						c0,0,0.971,31.815-1.7,37.158c-2.671,5.343-40.558,19.429-40.8,21.615C397.845,350.326,396.355,354.698,403.05,354.94z"/>
				</g>
			</g>
			<g style="opacity:0.33;">
				<g>
					<path style="fill:#D6D6D6;" d="M398.492,352.107c0,0,0.81,1.862,5.748,2.672c4.938,0.81,20.325,1.781,20.325,1.781
						s-0.734-1.457-7.292-1.457c-6.557,0-16.514-1.457-16.919-2.024"/>
				</g>
			</g>
		</g>
	</g>
</g>

</svg>
